<svg width="146" height="42" viewBox="0 0 146 42" fill="none" xmlns="http://www.w3.org/2000/svg">
<mask id="mask0" mask-type="alpha" maskUnits="userSpaceOnUse" x="60" y="0" width="24" height="42">
<path fill-rule="evenodd" clip-rule="evenodd" d="M60.3823 41.25H83.249V0.0496826H60.3823V41.25Z" fill="white"/>
</mask>
<g mask="url(#mask0)">
<path fill-rule="evenodd" clip-rule="evenodd" d="M69.1617 17.7794L69.3757 16.4393L79.1522 16.1005L79.9102 11.1352L70.2725 10.7412L70.7419 7.69971C70.8862 6.71038 71.1029 5.6478 72.9438 5.6478H82.491L83.249 0.636715C80.1358 0.19694 72.1858 0.0504239 72.1858 0.0504239C69.0635 0.0136821 65.8058 1.33301 65.0387 6.18833L63.5697 15.6474L61.1355 29.2399L63.3541 28.8436L60.3823 41.2502L72.8715 22.1591L68.3805 22.7977L69.1617 17.7794Z" fill="#18BA62"/>
</g>
<path fill-rule="evenodd" clip-rule="evenodd" d="M89.5369 16.3311L93.3924 7.68145L94.5843 16.3311H89.5369ZM91.0355 0L78.2144 27H84.7693L87.2885 21.5779H95.0627L95.9838 27H102.051L97.9068 0H91.0355Z" fill="#18BA62"/>
<path fill-rule="evenodd" clip-rule="evenodd" d="M125.745 5.49579L126.633 0H107.834L106.946 5.49579H118.408L104.429 21.504L103.541 27H122.34L123.228 21.504H112.293L125.745 5.49579Z" fill="#18BA62"/>
<path fill-rule="evenodd" clip-rule="evenodd" d="M145.956 0.050293H127.26L126.377 5.50024H137.777L123.874 21.3749L122.991 26.8251H141.687L142.571 21.3749H131.695L145.073 5.50024L145.956 0.050293Z" fill="#18BA62"/>
<path fill-rule="evenodd" clip-rule="evenodd" d="M13.1113 12.1721C14.6474 12.1721 15.628 11.2314 16.0444 8.59425C16.4423 6.00313 15.5633 5.2562 14.2308 5.2562H9.53036L8.42026 12.1721H13.1113ZM4.29312 0H15.6186C19.1809 0 23.2985 1.96421 22.1511 9.34117C20.8372 17.917 16.0626 17.5851 12.852 17.3913C11.3715 17.3085 7.89253 16.7921 7.70744 16.6814L6.0696 27H0L4.29312 0Z" fill="#3A8FF3"/>
<path fill-rule="evenodd" clip-rule="evenodd" d="M34.2473 16.3311L33.0554 7.68145L29.2001 16.3311H34.2473ZM30.6988 0H37.5698L41.7142 27H35.6465L34.7257 21.5779H26.9518L24.4325 27H17.8774L30.6988 0Z" fill="#3A8FF3"/>
<path fill-rule="evenodd" clip-rule="evenodd" d="M47.3759 0L49.8269 12.4764L56.6029 0H63.3162L51.8452 19.0696L50.6107 27H44.6998L45.9343 19.0696L40.9692 0H47.3759Z" fill="#3A8FF3"/>
</svg>
