<svg width="196" height="55" viewBox="0 0 196 55" fill="none" xmlns="http://www.w3.org/2000/svg">
<path fill-rule="evenodd" clip-rule="evenodd" d="M92.847 23.706L93.1343 21.9192L106.259 21.4675L107.277 14.8471L94.3383 14.3217L94.9684 10.2664C95.1622 8.94734 95.4531 7.53056 97.9244 7.53056H110.741L111.759 0.849116C107.579 0.26275 96.9068 0.0673946 96.9068 0.0673946C92.7152 0.0184056 88.3419 1.7775 87.312 8.25127L85.3399 20.8634L82.0721 38.9867L85.0505 38.4583L81.061 55.0004L97.8273 29.5456L91.7984 30.397L92.847 23.706Z" fill="white"/>
<path fill-rule="evenodd" clip-rule="evenodd" d="M120.2 21.7747L125.376 10.2419L126.976 21.7747H120.2ZM122.212 0L105 36H113.8L117.182 28.7706H127.618L128.855 36H137L131.436 0H122.212Z" fill="white"/>
<path fill-rule="evenodd" clip-rule="evenodd" d="M168.808 7.32773L170 0H144.763L143.57 7.32773H158.959L140.192 28.672L139 36H164.237L165.43 28.672H150.749L168.808 7.32773Z" fill="white"/>
<path fill-rule="evenodd" clip-rule="evenodd" d="M195.941 0.0668945H170.842L169.657 7.33349H184.96L166.297 28.4997L165.111 35.7666H190.21L191.396 28.4997H176.796L194.756 7.33349L195.941 0.0668945Z" fill="white"/>
<path fill-rule="evenodd" clip-rule="evenodd" d="M17.6012 16.2295C19.6633 16.2295 20.9797 14.9752 21.5387 11.459C22.073 8.00417 20.8929 7.00826 19.104 7.00826H12.7939L11.3036 16.2295H17.6012ZM5.76336 0H20.9675C25.7498 0 31.2775 2.61895 29.7371 12.4549C27.9732 23.8894 21.5635 23.4468 17.2534 23.1884C15.2659 23.078 10.5955 22.3895 10.347 22.2418L8.14823 36H0L5.76336 0Z" fill="white"/>
<path fill-rule="evenodd" clip-rule="evenodd" d="M45.9757 21.7747L44.3757 10.2419L39.2 21.7747H45.9757ZM41.2122 0H50.4363L56 36H47.8544L46.6182 28.7706H36.182L32.8 36H24L41.2122 0Z" fill="white"/>
<path fill-rule="evenodd" clip-rule="evenodd" d="M63.6007 0L66.8911 16.6352L75.9877 0H85L69.6006 25.4262L67.9433 36H60.0081L61.6654 25.4262L55 0H63.6007Z" fill="white"/>
</svg>
